{"title":"When the Game Stands Tall 2014 720p BluRay DTS x264 HDA DUAL RK","uid":11609595,"size":9220143006,"categoryP":"video","categoryS":"hd___movies","magnet":"?xt=urn:btih:02a3f0503781dd7c4dc7ffc2edf803c344731ac7&amp;dn=When+the+Game+Stands+Tall+2014+720p+BluRay+DTS+x264+HDA+DUAL+RK&amp;tr=udp%3A%2F%2Ftracker.openbittorrent.com%3A80&amp;tr=udp%3A%2F%2Fopen.demonii.com%3A1337&amp;tr=udp%3A%2F%2Ftracker.coppersurfer.tk%3A6969&amp;tr=udp%3A%2F%2Fexodus.desync.com%3A6969","seeders":3,"leechers":0,"uploader":"Alemao99","files":4,"time":1417394173,"description":"The legendary trajectory and record of Bob Ladouceur (Jim Caviezel), football coach who took over the team De La Salle unknown High School Spartans and led the boys from obscurity to staggering 151 games unbeaten. Based on a true story.\n\nOriginal title: When The Game Stands Tall\nTitle in Brazil: When the Game is High\nDirector: Thomas Carter\nDuration: 1h 55min\nGenre: Drama | Sport\nRelease Year: 2014\nIMDb: http://www.imdb.com/title/tt2247476/\n\nSize: 8:59 GB\nExtension Archive: .MKV\nVideo Quality: Blu-Ray\nVideo codec: H.264 / AVC\nCodec Audio: DTS-HD 5.1 @ 1536 Kbps / DTS 5.1 @ 1510 Kbps\nResolution: 1280 x 536\nAudio Language: Portuguese / English\nSubtitles: Portuguese\n\nSCREENS\ni.imgur.com/z5zRmsz.jpg\ni.imgur.com/2mW4vtD.jpg\n\n\nFile size                                : 8.59 GiB\nDuration                                 : 1h 55mn\nOverall bit rate mode                    : Variable\nOverall bit rate                         : 10.7 Mbps\nMovie name                               : REALITYKINGS â„¢\nEncoded date                             : UTC 2014-11-25 06:10:57\nWriting application                      : mkvmerge v5.6.0 ('Kenya Kane') built on May 28 2012 06:47:39\nWriting library                          : libebml v1.2.2 + libmatroska v1.3.0\n\nVideo\nID                                       : 1\nFormat                                   : AVC\nFormat/Info                              : Advanced Video Codec\nFormat profile                           : &lt;a class=&quot;__cf_email__&quot; href=&quot;/cdn-cgi/l/email-protection&quot; data-cfemail=&quot;a6eecfc1cee6ea928897&quot;&gt;[email&amp;#160;protected]&lt;/a&gt;&lt;script cf-hash='f9e31' type=&quot;text/javascript&quot;&gt;\n/* &lt;![CDATA[ */!function(){try{var t=&quot;currentScript&quot;in document?document.currentScript:function(){for(var t=document.getElementsByTagName(&quot;script&quot;),e=t.length;e--;)if(t[e].getAttribute(&quot;cf-hash&quot;))return t[e]}();if(t&amp;&amp;t.previousSibling){var e,r,n,i,c=t.previousSibling,a=c.getAttribute(&quot;data-cfemail&quot;);if(a){for(e=&quot;&quot;,r=parseInt(a.substr(0,2),16),n=2;a.length-n;n+=2)i=parseInt(a.substr(n,2),16)^r,e+=String.fromCharCode(i);e=document.createTextNode(e),c.parentNode.replaceChild(e,c)}}}catch(u){}}();/* ]]&gt; */&lt;/script&gt;\nFormat settings, CABAC                   : Yes\nFormat settings, ReFrames                : 9 frames\nMuxing mode                              : Header stripping\nCodec ID                                 : V_MPEG4/ISO/AVC\nDuration                                 : 1h 55mn\nBit rate                                 : 6 876 Kbps\nWidth                                    : 1 280 pixels\nHeight                                   : 694 pixels\nDisplay aspect ratio                     : 1.85:1\nFrame rate                               : 23.976 fps\nColor space                              : YUV\nChroma subsampling                       : 4:2:0\nBit depth                                : 8 bits\nScan type                                : Progressive\nBits/(Pixel*Frame)                       : 0.323\nStream size                              : 5.53 GiB (64%)\nWriting library                          : x264 core 142 r2431kMod ac76440\nEncoding settings                        : cabac=1 / ref=9 / deblock=1:-3:-3 / analyse=0x3:0x133 / me=umh / subme=10 / psy=1 / fade_compensate=0.00 / psy_rd=1.05:0.00 / mixed_ref=1 / me_range=24 / chroma_me=1 / trellis=2 / 8x8dct=1 / cqm=0 / deadzone=21,11 / fast_pskip=0 / chroma_qp_offset=-2 / threads=24 / lookahead_threads=4 / sliced_threads=0 / nr=0 / decimate=0 / interlaced=0 / bluray_compat=0 / constrained_intra=0 / fgo=0 / bframes=9 / b_pyramid=2 / b_adapt=2 / b_bias=0 / direct=3 / weightb=1 / open_gop=0 / weightp=2 / keyint=250 / keyint_min=23 / scenecut=40 / intra_refresh=0 / rc=crf / mbtree=0 / crf=15.3000 / qcomp=0.65 / qpmin=0 / qpmax=69 / qpstep=4 / ip_ratio=1.30 / pb_ratio=1.20 / aq=1:0.80\nLanguage                                 : English\nDefault                                  : Yes\nForced                                   : No\n\nAudio #1\nID                                       : 2\nFormat                                   : DTS\nFormat/Info                              : Digital Theater Systems\nFormat profile                           : MA / Core\nMuxing mode                              : Header stripping\nCodec ID                                 : A_DTS\nDuration                                 : 1h 55mn\nBit rate mode                            : Variable\nBit rate                                 : 2 077 Kbps / 1 510 Kbps\nChannel(s)                               : 6 channels\nChannel positions                        : Front: L C R, Side: L R, LFE\nSampling rate                            : 48.0 KHz\nBit depth                                : 16 bits\nCompression mode                         : Lossless / Lossy\nTitle                                    : @RK [BR] DTS 5.1\nLanguage                                 : Portuguese\nDefault                                  : Yes\nForced                                   : No\n\nAudio #2\nID                                       : 3\nFormat                                   : DTS\nFormat/Info                              : Digital Theater Systems\nMuxing mode                              : Header stripping\nCodec ID                                 : A_DTS\nDuration                                 : 1h 55mn\nBit rate mode                            : Constant\nBit rate                                 : 1 510 Kbps\nChannel(s)                               : 6 channels\nChannel positions                        : Front: L C R, Side: L R, LFE\nSampling rate                            : 48.0 KHz\nBit depth                                : 24 bits\nCompression mode                         : Lossy\nStream size                              : 1.21 GiB (14%)\nTitle                                    : @RK [ENG] DTS 5.1\nLanguage                                 : English\nDefault                                  : No\nForced                                   : No\n\n\nSEED PLEASE\n\nENJOY...\n\n\n================================================== ===\nW W W. H D - E L I T E. N E T (More download links)\n================================================== ===","torrent":{"xt":"urn:btih:02a3f0503781dd7c4dc7ffc2edf803c344731ac7","amp;dn":"When+the+Game+Stands+Tall+2014+720p+BluRay+DTS+x264+HDA+DUAL+RK","amp;tr":["udp%3A%2F%2Ftracker.openbittorrent.com%3A80","udp%3A%2F%2Fopen.demonii.com%3A1337","udp%3A%2F%2Ftracker.coppersurfer.tk%3A6969","udp%3A%2F%2Fexodus.desync.com%3A6969"],"infoHash":"02a3f0503781dd7c4dc7ffc2edf803c344731ac7","infoHashBuffer":{"type":"Buffer","data":[2,163,240,80,55,129,221,124,77,199,255,194,237,248,3,195,68,115,26,199]},"announce":[],"urlList":[]}}